<svg xmlns="http://www.w3.org/2000/svg" xmlns:xlink="http://www.w3.org/1999/xlink" width="43" height="34" viewBox="0 0 43 34">
  <defs>
    <style>
      .cls-1 {
        fill-rule: evenodd;
        filter: url(#filter);
      }
    </style>
    <filter id="filter" x="532" y="970" width="43" height="34" filterUnits="userSpaceOnUse">
      <feFlood result="flood" flood-color="#0095ff"/>
      <feComposite result="composite" operator="in" in2="SourceGraphic"/>
      <feBlend result="blend" in2="SourceGraphic"/>
    </filter>
  </defs>
  <path id="icon.svg" class="cls-1" d="M535.318,974a0.631,0.631,0,0,0,.446-0.188,0.643,0.643,0,0,0,0-.9,0.623,0.623,0,0,0-.892,0,0.643,0.643,0,0,0,0,.9A0.631,0.631,0,0,0,535.318,974Zm2.02,0a0.629,0.629,0,0,0,.446-0.188,0.641,0.641,0,0,0,0-.9,0.623,0.623,0,0,0-.892,0,0.643,0.643,0,0,0,0,.9A0.633,0.633,0,0,0,537.338,974Zm2.02,0a0.633,0.633,0,0,0,.447-0.188,0.643,0.643,0,0,0,0-.9,0.624,0.624,0,0,0-.893,0,0.643,0.643,0,0,0,0,.9A0.633,0.633,0,0,0,539.358,974Zm2.694,0h25.589a0.64,0.64,0,0,0,0-1.279H542.052A0.64,0.64,0,0,0,542.052,974Zm28.283,0h1.347a0.64,0.64,0,0,0,0-1.279h-1.347A0.64,0.64,0,0,0,570.335,974Zm-1.347,5.539H556.867a1.993,1.993,0,0,0-1.978,2v0.043h-0.716a1.993,1.993,0,0,0-1.978,2v5.5h-1.431V987a1.993,1.993,0,0,0-1.978-2H538.012a1.993,1.993,0,0,0-1.978,2v5.455a1.992,1.992,0,0,0,1.978,2h10.774a1.992,1.992,0,0,0,1.978-2v-2.088H552.2v5.5a1.993,1.993,0,0,0,1.978,2h0.716v0.043a1.993,1.993,0,0,0,1.978,2h12.121a1.993,1.993,0,0,0,1.978-2v-1.363a1.992,1.992,0,0,0-1.978-2H556.867a1.992,1.992,0,0,0-1.978,2v0.042h-0.716a0.721,0.721,0,0,1-.715-0.724v-5.5h1.431v0.042a1.992,1.992,0,0,0,1.978,2h12.121a1.992,1.992,0,0,0,1.978-2v-1.364a1.992,1.992,0,0,0-1.978-2H556.867a1.992,1.992,0,0,0-1.978,2v0.043h-1.431v-5.5a0.721,0.721,0,0,1,.715-0.725h0.716v0.043a1.993,1.993,0,0,0,1.978,2h12.121a1.993,1.993,0,0,0,1.978-2v-1.364A1.993,1.993,0,0,0,568.988,979.542ZM549.5,992.455a0.721,0.721,0,0,1-.716.724H538.012a0.721,0.721,0,0,1-.716-0.724V987a0.721,0.721,0,0,1,.716-0.724h10.774a0.721,0.721,0,0,1,.716.724v5.455Zm6.649,4.091a0.722,0.722,0,0,1,.716-0.725h12.121a0.721,0.721,0,0,1,.716.725v1.363a0.721,0.721,0,0,1-.716.725H556.867a0.722,0.722,0,0,1-.716-0.725v-1.363Zm0-7.5a0.722,0.722,0,0,1,.716-0.724h12.121a0.721,0.721,0,0,1,.716.724v1.364a0.721,0.721,0,0,1-.716.725H556.867a0.722,0.722,0,0,1-.716-0.725v-1.364Zm13.553-6.136a0.721,0.721,0,0,1-.716.724H556.867a0.722,0.722,0,0,1-.716-0.724v-1.364a0.722,0.722,0,0,1,.716-0.724h12.121a0.721,0.721,0,0,1,.716.724v1.364ZM571.682,970H535.318a3.35,3.35,0,0,0-3.325,3.366v27.277a3.348,3.348,0,0,0,3.325,3.36h36.364a3.348,3.348,0,0,0,3.325-3.36V973.363A3.35,3.35,0,0,0,571.682,970Zm-36.364,1.278h36.364a2.078,2.078,0,0,1,2.062,2.088v2.089H533.256v-2.089A2.078,2.078,0,0,1,535.318,971.275Zm36.364,31.445H535.318a2.071,2.071,0,0,1-2.062-2.08V976.73h40.488v23.91A2.071,2.071,0,0,1,571.682,1002.72Z" transform="translate(-532 -970)"/>
</svg>
