<svg xmlns="http://www.w3.org/2000/svg" xmlns:xlink="http://www.w3.org/1999/xlink" width="42" height="49" viewBox="0 0 42 49">
  <defs>
    <style>
      .cls-1 {
        fill-rule: evenodd;
        filter: url(#filter);
      }
    </style>
    <filter id="filter" x="1139" y="963" width="42" height="49" filterUnits="userSpaceOnUse">
      <feFlood result="flood" flood-color="#0095ff"/>
      <feComposite result="composite" operator="in" in2="SourceGraphic"/>
      <feBlend result="blend" in2="SourceGraphic"/>
    </filter>
  </defs>
  <path id="roga.svg" class="cls-1" d="M1160.87,992.114a0.99,0.99,0,0,0-.87-0.519,0.964,0.964,0,0,0-.86.519l-6.47,11.816a1.006,1.006,0,0,0,.38,1.35,6.863,6.863,0,0,1,3.19,5.72,0.994,0.994,0,0,0,.99,1h5.54a0.994,0.994,0,0,0,.99-1,6.818,6.818,0,0,1,3.19-5.71,1.017,1.017,0,0,0,.38-1.36S1160.87,992.117,1160.87,992.114Zm0.97,17.886h-3.68a8.8,8.8,0,0,0-3.33-5.89l4.18-7.643v4.1a0.99,0.99,0,1,0,1.98,0v-4.1l4.18,7.643A8.8,8.8,0,0,0,1161.84,1010Zm18.17-47h-4.14a0.991,0.991,0,0,0-.98,1v4.186a0.991,0.991,0,0,0,.98,1h0.81a17.012,17.012,0,0,1-13.62,13.784v-0.814a1,1,0,0,0-.99-1h-4.14a1,1,0,0,0-.99,1v0.814a17.009,17.009,0,0,1-13.62-13.784h0.81a0.991,0.991,0,0,0,.98-1V964a0.991,0.991,0,0,0-.98-1h-4.14a0.993,0.993,0,0,0-.99,1v4.186a0.993,0.993,0,0,0,.99,1h1.33a19.076,19.076,0,0,0,10.26,14.063h-6.8a1.7,1.7,0,1,0,0,2h12.16v1.092a1,1,0,0,0,.99,1h4.14a1,1,0,0,0,.99-1v-1.092h12.16a1.7,1.7,0,1,0,0-2h-6.8a19.128,19.128,0,0,0,5.1-3.744,19.324,19.324,0,0,0,5.16-10.319h1.33a0.993,0.993,0,0,0,.99-1V964A0.993,0.993,0,0,0,1180.01,963Zm-39.03,2h2.16v2.186h-2.16V965Zm20.1,20.342h-2.16v-2.186h2.16v2.186h0Zm17.94-18.156h-2.16V965h2.16v2.186Z" transform="translate(-1139 -963)"/>
</svg>
