<?xml version="1.0" encoding="utf-8"?>
<!-- Generator: Adobe Illustrator 19.2.0, SVG Export Plug-In . SVG Version: 6.00 Build 0)  -->
<svg version="1.1" id="icon_xA0_Image_1_" xmlns="http://www.w3.org/2000/svg" xmlns:xlink="http://www.w3.org/1999/xlink" x="0px"
	 y="0px" viewBox="0 0 253 244.6" style="enable-background:new 0 0 253 244.6;" xml:space="preserve">
<style type="text/css">
	.st0{fill:#FEFEFE;}
	.st1{fill:#0095FF;}
</style>
<g>
	<path class="st0" d="M124.9,244.6c-40.4,0-80.9,0-121.3,0.1c-3,0-3.6-0.6-3.5-3.5C0.1,161.5,0.1,82,0,2.4c0-3,0.6-3.6,3.5-3.5
		c80.9,0.1,161.8,0.1,242.7,0c3,0,3.6,0.6,3.5,3.5c-0.1,79.6-0.1,159.1,0,238.7c0,3-0.6,3.6-3.5,3.5
		C205.8,244.5,165.3,244.6,124.9,244.6z"/>
	<path class="st1" d="M169.7,35.5c1.5,0.1,2.1,1.2,2.9,1.9c12.4,12.1,24.6,24.4,37.1,36.4c2.2,2.1,1.7,3.2-0.2,5
		c-42.3,41.5-84.5,83.1-126.7,124.7c-2.2,2.2-3.3,2.1-5.4,0c-12-12-24.1-24-36.4-35.8c-2.6-2.5-2.3-3.7,0.1-6.1
		c42.1-41.3,84-82.6,126-123.9C168.1,36.9,169,36.1,169.7,35.5z"/>
	<path class="st1" d="M209-0.1c2.3-0.2,4.1,0.9,5.7,2.4c10.1,10,20.2,19.9,30.3,29.9c3.8,3.8,3.9,7.5,0.2,11.3
		c-6,6.1-12.3,12-18.2,18.2c-2,2-3,1.4-4.7-0.2C210,49.3,197.6,37.1,185.2,25c-2.1-2-1.9-3.2,0.1-5.1c6-5.7,11.8-11.5,17.7-17.3
		C204.6,1,206.5-0.3,209-0.1z"/>
	<path class="st1" d="M65.9,219.1c-19.5,7.4-40.1,15.1-60.6,22.9c-1.2,0.5-2.6,1.1-3.7,0c-1-1.1-0.3-2.5,0.1-3.7
		c7.6-19.4,15.2-38.9,22.8-58.3c0.7-1.7,1.3-2.7,3-0.9C40.3,192.5,53.2,205.9,65.9,219.1z"/>
</g>
</svg>
